{
  "title": "Narcos.S01.720p.BluRay.x264-DEMAND [Season 1 One Complete]",
  "uid": 15577922,
  "size": 24563832033,
  "categoryP": "video",
  "categoryS": "hd___tv_shows",
  "magnet": "?xt=urn:btih:a1148078f444903ca102f3806e4466e3c7a83fb3&amp;dn=Narcos.S01.720p.BluRay.x264-DEMAND+%5BSeason+1+One+Complete%5D&amp;tr=udp%3A%2F%2Ftracker.leechers-paradise.org%3A6969&amp;tr=udp%3A%2F%2Fzer0day.ch%3A1337&amp;tr=udp%3A%2F%2Fopen.demonii.com%3A1337&amp;tr=udp%3A%2F%2Ftracker.coppersurfer.tk%3A6969&amp;tr=udp%3A%2F%2Fexodus.desync.com%3A6969",
  "seeders": 36,
  "leechers": 33,
  "uploader": "GoodFilms",
  "files": 32,
  "time": 1471365575,
  "description": "http://www.imdb.com/title/tt2707408/\r\n\r\nVideo\r\nID                                       : 1\r\nFormat                                   : AVC\r\nFormat/Info                              : Advanced Video Codec\r\nFormat profile                           :   \r\nFormat settings, CABAC                   : Yes\r\nFormat settings, ReFrames                : 5 frames\r\nCodec ID                                 : V_MPEG4/ISO/AVC\r\nDuration                                 : 57mn 0s\r\nBit rate                                 : 5 132 Kbps\r\nWidth                                    : 1 280 pixels\r\nHeight                                   : 720 pixels\r\nDisplay aspect ratio                     : 16:9\r\nFrame rate mode                          : Constant\r\nFrame rate                               : 23.976 fps\r\nColor space                              : YUV\r\nChroma subsampling                       : 4:2:0\r\nBit depth                                : 8 bits\r\nScan type                                : Progressive\r\nBits/(Pixel*Frame)                       : 0.232\r\nStream size                              : 2.04 GiB (77%)\r\nWriting library                          : x264 core 148 r2692 64f4e24\r\nEncoding settings                        : cabac=1 / ref=5 / deblock=1:0:0 / analyse=0x3:0x133 / me=umh / subme=7 / psy=1 / psy_rd=1.00:0.00 / mixed_ref=1 / me_range=16 / chroma_me=1 / trellis=1 / 8x8dct=1 / cqm=0 / deadzone=21,11 / fast_pskip=0 / chroma_qp_offset=-2 / threads=22 / lookahead_threads=3 / sliced_threads=0 / nr=0 / decimate=1 / interlaced=0 / bluray_compat=0 / constrained_intra=0 / bframes=3 / b_pyramid=2 / b_adapt=1 / b_bias=0 / direct=1 / weightb=1 / open_gop=0 / weightp=2 / keyint=250 / keyint_min=23 / scenecut=40 / intra_refresh=0 / rc_lookahead=40 / rc=2pass / mbtree=1 / bitrate=5132 / ratetol=1.0 / qcomp=0.60 / qpmin=0 / qpmax=69 / qpstep=4 / cplxblur=20.0 / qblur=0.5 / ip_ratio=1.40 / aq=1:1.00\r\nLanguage                                 : English\r\nDefault                                  : Yes\r\nForced                                   : No\r\n\r\nAudio\r\nID                                       : 2\r\nFormat                                   : DTS\r\nFormat/Info                              : Digital Theater Systems\r\nMode                                     : 16\r\nFormat settings, Endianness              : Big\r\nCodec ID                                 : A_DTS\r\nDuration                                 : 57mn 0s\r\nBit rate mode                            : Constant\r\nBit rate                                 : 1 509 Kbps\r\nChannel(s)                               : 6 channels\r\nChannel positions                        : Front: L C R, Side: L R, LFE\r\nSampling rate                            : 48.0 KHz\r\nFrame rate                               : 93.750 fps (512 spf)\r\nBit depth                                : 24 bits\r\nCompression mode                         : Lossy\r\nStream size                              : 615 MiB (23%)\r\nLanguage                                 : English\r\nDefault                                  : Yes\r\nForced                                   : No\r\n\r\nText\r\nID                                       : 3\r\nFormat                                   : UTF-8\r\nCodec ID                                 : S_TEXT/UTF8\r\nCodec ID/Info                            : UTF-8 Plain Text\r\nDuration                                 : 54mn 28s\r\nBit rate                                 : 33 bps\r\nCount of elements                        : 415\r\nStream size                              : 13.5 KiB (0%)\r\nTitle                                    : Forced\r\nLanguage                                 : English\r\nDefault                                  : Yes\r\nForced                                   : Yes\r\n\r\nMenu\r\n00:00:00.000                             : en:00:00:00.000\r\n00:07:19.105                             : en:00:07:19.105\r\n00:19:14.528                             : en:00:19:14.528\r\n00:28:02.514                             : en:00:28:02.514\r\n00:38:42.820                             : en:00:38:42.820\r\n00:48:54.723                             : en:00:48:54.723\r\n00:53:34.586                             : en:00:53:34.586",
  "parsed": {
    "xt": "urn:btih:a1148078f444903ca102f3806e4466e3c7a83fb3",
    "dn": "Narcos.S01.720p.BluRay.x264-DEMAND [Season 1 One Complete]",
    "tr": [
      "udp://exodus.desync.com:6969",
      "udp://open.demonii.com:1337",
      "udp://tracker.coppersurfer.tk:6969",
      "udp://tracker.leechers-paradise.org:6969",
      "udp://zer0day.ch:1337"
    ],
    "infoHash": "a1148078f444903ca102f3806e4466e3c7a83fb3",
    "infoHashBuffer": {
      "type": "Buffer",
      "data": [
        161,
        20,
        128,
        120,
        244,
        68,
        144,
        60,
        161,
        2,
        243,
        128,
        110,
        68,
        102,
        227,
        199,
        168,
        63,
        179
      ]
    },
    "name": "Narcos.S01.720p.BluRay.x264-DEMAND [Season 1 One Complete]",
    "announce": [
      "udp://exodus.desync.com:6969",
      "udp://open.demonii.com:1337",
      "udp://tracker.coppersurfer.tk:6969",
      "udp://tracker.leechers-paradise.org:6969",
      "udp://zer0day.ch:1337"
    ],
    "urlList": []
  },
  "previous": 88,
  "peers": 76,
  "last_updated": "2016-12-27T08:46:31.880Z"
}